<svg width="30" height="13" viewBox="0 0 30 13" fill="none" xmlns="http://www.w3.org/2000/svg">
<path fill-rule="evenodd" clip-rule="evenodd" d="M28.881 6.37054C28.9193 6.42427 28.9464 6.46724 28.9653 6.5C28.9464 6.53276 28.9193 6.57573 28.881 6.62946C28.7377 6.83052 28.4995 7.09421 28.1541 7.40346C27.467 8.01878 26.439 8.74012 25.1386 9.42877C23.6243 10.2307 21.7748 10.9703 19.7148 11.4485C21.1132 10.2562 22 8.48167 22 6.5C22 4.51833 21.1132 2.74378 19.7148 1.55155C21.7748 2.02965 23.6243 2.76932 25.1386 3.57123C26.439 4.25988 27.467 4.98122 28.1541 5.59654C28.4995 5.90579 28.7377 6.16948 28.881 6.37054ZM16.0661 1.02878C18.8377 1.31216 21 3.65356 21 6.5C21 9.34644 18.8377 11.6878 16.0661 11.9712C15.821 11.9844 15.5742 11.9932 15.3259 11.9973C12.3689 11.9053 10 9.4793 10 6.5C10 3.5207 12.3689 1.09467 15.3259 1.0027C15.5742 1.00682 15.821 1.0156 16.0661 1.02878ZM11.6191 1.28522C10.0295 2.47018 9 4.36487 9 6.5C9 8.63513 10.0295 10.5298 11.6191 11.7148C9.02232 11.2804 6.69586 10.4003 4.8614 9.42877C3.56099 8.74012 2.53302 8.01878 1.84587 7.40346C1.50051 7.09421 1.26235 6.83052 1.119 6.62946C1.0807 6.57573 1.05364 6.53276 1.03469 6.5C1.05364 6.46724 1.0807 6.42427 1.119 6.37054C1.26235 6.16948 1.50051 5.90579 1.84587 5.59654C2.53302 4.98122 3.56099 4.25988 4.8614 3.57123C6.69586 2.59975 9.02232 1.71962 11.6191 1.28522ZM15.3191 0.0024676C15.213 0.000828578 15.1066 0 15 0C6.71573 0 0 5 0 6.5C0 8 6.71573 13 15 13C15.1066 13 15.213 12.9992 15.3191 12.9975C15.3792 12.9992 15.4395 13 15.5 13C15.7175 13 15.9325 12.9893 16.1446 12.9684C23.8941 12.5427 30 7.93027 30 6.5C30 5.06973 23.8941 0.45728 16.1446 0.031558C15.9325 0.0106847 15.7175 0 15.5 0C15.4395 0 15.3792 0.000826089 15.3191 0.0024676Z" fill="#AEAEAE"/>
</svg>
